<?xml version="1.0" encoding="UTF-8"?>
<svg width="24px" height="24px" viewBox="0 0 24 24" version="1.1" xmlns="http://www.w3.org/2000/svg" xmlns:xlink="http://www.w3.org/1999/xlink">
    <title>形状结合</title>
    <g id="PC端" stroke="none" stroke-width="1" fill="none" fill-rule="evenodd">
        <g id="直播详情a" transform="translate(-1560, -780)" fill="#C2C3C6">
            <path d="M1572,779.9996 C1573.619,779.9996 1575.191,780.3166 1576.67,780.9446 C1578.099,781.5476 1579.381,782.4136 1580.485,783.5146 C1581.586,784.6156 1582.452,785.8976 1583.056,787.3296 C1583.683,788.8086 1584,790.3806 1584,791.9996 C1584,793.6196 1583.683,795.1906 1583.056,796.6706 C1582.452,798.0986 1581.586,799.3806 1580.485,800.4856 C1579.384,801.5896 1578.102,802.4526 1576.67,803.0556 C1575.191,803.6826 1573.619,803.9996 1572,803.9996 C1570.381,803.9996 1568.809,803.6826 1567.33,803.0556 C1565.901,802.4526 1564.619,801.5866 1563.515,800.4856 C1562.414,799.3836 1561.548,798.1026 1560.944,796.6706 C1560.317,795.1906 1560,793.6196 1560,791.9996 C1560,790.3806 1560.317,788.8086 1560.944,787.3296 C1561.548,785.9006 1562.414,784.6196 1563.515,783.5146 C1564.616,782.4136 1565.898,781.5476 1567.33,780.9446 C1568.809,780.3166 1570.381,779.9996 1572,779.9996 Z M1572,782.1886 C1566.586,782.1886 1562.185,786.5936 1562.185,792.0036 C1562.185,797.4166 1566.59,801.8186 1572,801.8186 C1577.414,801.8186 1581.815,797.4136 1581.815,792.0036 C1581.818,786.5896 1577.414,782.1886 1572,782.1886 Z M1573.9668,793.6854 C1574.2398,793.6854 1574.4648,793.9064 1574.4648,794.1834 L1574.4648,794.3534 C1574.4648,795.7684 1573.3128,796.9374 1571.8978,796.9104 C1570.5308,796.8834 1569.4328,795.7684 1569.4328,794.3944 L1569.4228,794.2104 C1569.4058,793.9274 1569.6338,793.6854 1569.9168,793.6854 L1573.9668,793.6854 Z M1576.7871,788.127599 C1577.7451,788.127599 1578.5221,788.9056 1578.5211,789.8636 C1578.5211,790.8236 1577.7441,791.6006 1576.7851,791.599601 C1575.8271,791.599601 1575.0511,790.8216 1575.0511,789.8636 C1575.0511,788.9036 1575.8291,788.1266 1576.7871,788.127599 Z M1567.2178,788.127599 C1568.1758,788.127599 1568.9528,788.9056 1568.9518,789.8636 C1568.9518,790.8216 1568.1758,791.5986 1567.2168,791.5986 C1566.2588,791.5986 1565.4818,790.8216 1565.4818,789.8636 C1565.4828,788.9036 1566.2598,788.1266 1567.2178,788.127599 Z" id="形状结合"></path>
        </g>
    </g>
</svg>