<?xml version="1.0" encoding="UTF-8"?>
<svg width="36px" height="36px" viewBox="0 0 36 36" version="1.1" xmlns="http://www.w3.org/2000/svg" xmlns:xlink="http://www.w3.org/1999/xlink">
    <title>编组 14</title>
    <g id="页面-1" stroke="none" stroke-width="1" fill="none" fill-rule="evenodd">
        <g id="直播详情a" transform="translate(-1262, -106)">
            <g id="编组-14" transform="translate(1262, 106)">
                <rect id="矩形备份-30" fill="#F4F4F5" x="0" y="0" width="36" height="36" rx="18"></rect>
                <g id="编组-4" transform="translate(10, 10)">
                    <rect id="矩形备份-35" fill="#2D2E36" opacity="0" x="0" y="0" width="16" height="16"></rect>
                    <path d="M10.6145,2.18711469 C10.8425,1.95911469 11.2055,1.93711469 11.4605,2.13411469 L11.5205,2.18711469 L13.8105,4.47011469 C14.1975,4.85611469 13.9515,5.50211469 13.4305,5.55811469 L13.3575,5.56211469 L12.3345,5.56211469 C10.6185,5.56211469 9.2065,6.90911469 9.1315,8.61911469 L9.1295,8.75811469 L9.1295,10.0901147 C9.1295,10.4431147 8.8415,10.7291147 8.4875,10.7281173 C8.1635,10.7281173 7.8905,10.4861147 7.8515,10.1651147 L7.8475,10.0901147 L7.8475,8.75811469 C7.8475,6.52111469 9.5035,4.62811469 11.7255,4.32411469 L11.8375,4.31011469 L10.6145,3.09111469 C10.3865,2.86311469 10.3635,2.50211469 10.5615,2.24711469 L10.6145,2.18711469 Z" id="Fill-1" fill="#FF4C4C"></path>
                    <path d="M7.8539,2.3245042 C8.2079,2.32251469 8.4969,2.60651469 8.4989,2.95951469 C8.5019,3.28651469 8.2549,3.56351469 7.9279,3.59951469 L7.8539,3.60251469 L4.5639,3.60251469 C3.8929,3.60251469 3.3349,4.11851469 3.2849,4.78651469 L3.2819,4.88151469 L3.2819,11.4435147 C3.2819,12.1125147 3.7989,12.6685147 4.4679,12.7185147 L4.5639,12.7215147 L11.1439,12.7215147 C11.8149,12.7215147 12.3719,12.2055147 12.4219,11.5395147 L12.4259,11.4435147 L12.4259,8.16251469 C12.4269,7.80951469 12.7139,7.52351469 13.0679,7.52451469 C13.3919,7.52551469 13.6649,7.76751469 13.7029,8.08851469 L13.7079,8.16251469 L13.7079,11.4435147 C13.7079,12.8055147 12.6369,13.9285147 11.2719,13.9965147 L11.1439,13.9995147 L4.5639,13.9995147 C3.1979,13.9995147 2.0719,12.9315147 2.0029,11.5705147 L1.9999,11.4435147 L1.9999,4.88151469 C1.9999,3.51851469 3.0709,2.39551469 4.4359,2.32751469 L4.5639,2.3245042 C4.5639,2.3245042 7.8539,2.3245042 7.8539,2.3245042" id="Fill-3" fill="#090E16"></path>
                </g>
            </g>
        </g>
    </g>
</svg>