<?xml version="1.0" encoding="UTF-8"?>
<svg width="16px" height="16px" viewBox="0 0 16 16" version="1.1" xmlns="http://www.w3.org/2000/svg" xmlns:xlink="http://www.w3.org/1999/xlink">
    <title>编组 6</title>
    <g id="PC端" stroke="none" stroke-width="1" fill="none" fill-rule="evenodd">
        <g id="直播详情a" transform="translate(-1110, -116)" fill="#FFFFFF">
            <g id="编组-10" transform="translate(1092, 106)">
                <g id="编组-6" transform="translate(18, 10)">
                    <rect id="矩形备份-37" opacity="0" x="0" y="0" width="16" height="16"></rect>
                    <path d="M7.7515,12.4650571 L4.5615,14.1390571 C4.3005,14.2760571 3.9775,14.1750571 3.8395,13.9140571 C3.7855,13.8110571 3.7665,13.6920571 3.7865,13.5760571 L4.3945,10.0290571 C4.4235,9.85605708 4.3665,9.68005708 4.2405,9.55705708 L1.6615,7.04405708 C1.4495,6.83805708 1.4455,6.50105708 1.6515,6.29005708 C1.7335,6.20605708 1.8415,6.15105708 1.9575,6.13405708 L5.5235,5.61605708 C5.6965,5.59005708 5.8475,5.48105708 5.9255,5.32405708 L7.5205,2.09705708 C7.6515,1.83305708 7.9725,1.72505708 8.2365,1.85505708 C8.3415,1.90705708 8.4265,1.99205708 8.4785,2.09705708 L10.0745,5.32405708 C10.1525,5.48105708 10.3025,5.59005708 10.4765,5.61605708 L14.0425,6.13405708 C14.3345,6.17705708 14.5365,6.44805708 14.4945,6.73905708 C14.4775,6.85505708 14.4225,6.96205708 14.3385,7.04405708 L11.7595,9.55705708 C11.6335,9.68005708 11.5755,9.85605708 11.6055,10.0290571 L12.2135,13.5760571 C12.2635,13.8670571 12.0675,14.1420571 11.7775,14.1920571 C11.6615,14.2120571 11.5425,14.1930571 11.4385,14.1390571 L8.2485,12.4650571 C8.0925,12.3830571 7.9075,12.3830571 7.7515,12.4650571 Z M10.8005,12.4480571 L10.4205,10.2320571 C10.3245,9.66905708 10.5115,9.09605708 10.9195,8.69805708 L12.5315,7.12805708 L10.3035,6.80305708 C9.7385,6.72105708 9.2505,6.36705708 8.9975,5.85605708 L7.9995,3.83905708 L7.0025,5.85605708 C6.7495,6.36705708 6.2615,6.72105708 5.6965,6.80305708 L3.4685,7.12805708 L5.0805,8.69805708 C5.4885,9.09605708 5.6755,9.66905708 5.5795,10.2320571 L5.1995,12.4480571 L7.1925,11.4020571 C7.6985,11.1370571 8.3015,11.1370571 8.8075,11.4020571 L10.8005,12.4480571 Z" id="Fill-1"></path>
                </g>
            </g>
        </g>
    </g>
</svg>