<?xml version="1.0" encoding="UTF-8"?>
<svg width="24px" height="24px" viewBox="0 0 24 24" version="1.1" xmlns="http://www.w3.org/2000/svg" xmlns:xlink="http://www.w3.org/1999/xlink">
    <title>Fill 1</title>
    <g id="PC端" stroke="none" stroke-width="1" fill="none" fill-rule="evenodd">
        <g id="直播详情a" transform="translate(-1596, -780)" fill="#C2C3C6">
            <g id="编组-3" transform="translate(1330, 770)">
                <path d="M274.273258,22.5728939 C273.768712,23.1033047 272.882312,23.0524248 272.451789,22.3989831 C272.325865,22.2078855 272.260011,21.9788405 272.267838,21.750136 C272.278899,21.4229046 272.415033,21.1358327 272.630465,20.9307814 L276.851339,16.7097369 C277.643467,15.9176091 278.927888,15.9176091 279.720016,16.7097369 L283.940209,20.9299306 C284.465345,21.4295411 284.420591,22.3033492 283.785698,22.7384665 C283.518876,22.9213961 283.178371,22.9841877 282.865094,22.9031882 C282.642175,22.8456717 282.448184,22.7304686 282.298097,22.5728939 L279.424946,19.699743 L279.424946,26.8085562 C279.424946,27.6726647 278.931461,28.115641 278.330601,28.115641 L278.19668,28.115641 C277.590375,28.115641 277.102165,27.6726647 277.102165,26.8085562 L277.102165,19.7431356 L274.273258,22.5728939 Z M290,22.00156 C290,15.37816 284.62616,10 278.00156,10 C271.37432,10 266,15.37372 266,21.99832 C266,28.62172 271.37,34 278.00156,34 C284.63,34 290,28.62616 290,22.00156 Z" id="Fill-1"></path>
            </g>
        </g>
    </g>
</svg>