<?xml version="1.0" encoding="UTF-8"?>
<svg width="24px" height="24px" viewBox="0 0 24 24" version="1.1" xmlns="http://www.w3.org/2000/svg" xmlns:xlink="http://www.w3.org/1999/xlink">
    <title>编组 7</title>
    <g id="PC端" stroke="none" stroke-width="1" fill="none" fill-rule="evenodd">
        <g id="直播详情a" transform="translate(-1336, -100)">
            <g id="编组-7" transform="translate(1336, 100)">
                <rect id="矩形备份-36" fill="#2D2E36" opacity="0" x="0" y="0" width="24" height="24"></rect>
                <path d="M20.3,16.4733427 C20.3,18.0413293 19.012,19.3161231 17.43,19.3161231 L6.57,19.3161231 C4.987,19.3161231 3.7,18.0413293 3.7,16.4733427 L3.7,8.56902657 C3.7,7.00104004 4.987,5.72624619 6.57,5.72624619 L17.43,5.72624619 C19.012,5.72624619 20.3,7.00104004 20.3,8.56902657 L20.3,16.4733427 Z M17.43,4.04236931 L15.918,4.04236931 L17.598,2.394151 C17.918,2.07916698 17.918,1.55023153 17.598,1.23623802 C17.277,0.921253993 16.738,0.921253993 16.418,1.23623802 L13.559,4.04236931 L10.191,4.04236931 L7.331,1.23623802 C7.011,0.921253993 6.472,0.921253993 6.152,1.23623802 C5.831,1.55023153 5.831,2.07916698 6.152,2.394151 L7.831,4.04236931 L6.57,4.04236931 C4.046,4.04236931 2,6.06896466 2,8.56902657 L2,16.4733427 C2,18.9734047 4.046,21 6.57,21 L17.43,21 C19.954,21 22,18.9734047 22,16.4733427 L22,8.56902657 C22,6.06896466 19.954,4.04236931 17.43,4.04236931 L17.43,4.04236931 Z" id="形状结合" fill="#090E16"></path>
                <path d="M8.559,8.429661 C8.806,8.02057797 9.347,7.86902905 9.764,8.11170542 L16.21,11.7676993 C16.488,11.9192482 16.658,12.2074883 16.658,12.5264344 C16.658,12.8453805 16.488,13.1177723 16.21,13.2851695 L9.764,16.9411634 C9.625,17.0015848 9.471,17.0471486 9.316,17.0471486 C9.007,17.0471486 8.713,16.8955996 8.543,16.6073595 C8.296,16.1982765 8.451,15.6663695 8.868,15.4236931 L13.984,12.5264344 L8.883,9.61332739 C8.466,9.37065102 8.311,8.83973454 8.559,8.429661 Z M9.4075,10.9694426 C9.8325,10.9694426 10.1895,11.3418765 10.1895,11.7846371 L10.1895,13.2575341 C10.2035,13.7151524 9.8465,14.0727286 9.4075,14.0727286 C8.9695,14.0727286 8.6265,13.7012852 8.6265,13.2575341 L8.6265,11.7846371 C8.6265,11.3270188 8.9825,10.9694426 9.4075,10.9694426 Z" id="形状结合" fill="#FF4C4C"></path>
            </g>
        </g>
    </g>
</svg>