<?xml version="1.0" encoding="UTF-8"?>
<svg width="16px" height="16px" viewBox="0 0 16 16" version="1.1" xmlns="http://www.w3.org/2000/svg" xmlns:xlink="http://www.w3.org/1999/xlink">
    <title>编组 5</title>
    <g id="PC端" stroke="none" stroke-width="1" fill="none" fill-rule="evenodd">
        <g id="直播详情a" transform="translate(-468, -132)">
            <g id="编组-8" transform="translate(468, 131)">
                <g id="编组-5" transform="translate(0, 1)">
                    <rect id="矩形备份-36" fill="#2D2E36" opacity="0" x="0" y="0" width="16" height="16"></rect>
                    <path d="M8,1.5 C11.589,1.5 14.5,4.411 14.5,8 C14.5,11.589 11.589,14.5 8,14.5 C4.411,14.5 1.5,11.589 1.5,8 C1.5,4.411 4.411,1.5 8,1.5 Z M8,2.827 C5.143,2.827 2.827,5.143 2.827,8 C2.827,10.857 5.143,13.173 8,13.173 C10.857,13.173 13.173,10.857 13.173,8 C13.173,5.143 10.857,2.827 8,2.827 Z M8.6677,6.2354 C8.8107,6.3644 8.8817,6.5564 8.8587,6.7484 L8.3847,10.6044 L8.7227,10.5184 C8.9237,10.4664 9.1377,10.5274 9.2807,10.6784 C9.4257,10.8304 9.4797,11.0484 9.4217,11.2514 C9.3657,11.4534 9.2057,11.6094 9.0027,11.6604 L7.8477,11.9544 C7.6617,12.0014 7.4657,11.9524 7.3247,11.8244 C7.1807,11.6944 7.1097,11.5024 7.1337,11.3104 L7.6067,7.4554 L7.2697,7.5414 C6.9597,7.6154 6.6487,7.4254 6.5737,7.1154 C6.4957,6.7984 6.6817,6.4804 6.9887,6.3994 L8.1447,6.1054 C8.3297,6.0584 8.5267,6.1074 8.6677,6.2354 Z M8.2847,4.0274 C8.6037,4.0274 8.8627,4.2914 8.8627,4.6164 C8.8627,4.9414 8.6037,5.2054 8.2847,5.2054 L7.7067,5.2054 C7.5537,5.2054 7.4067,5.1424 7.2987,5.0324 C7.1907,4.9214 7.1297,4.7724 7.1297,4.6164 C7.1297,4.2914 7.3887,4.0274 7.7077,4.0274 L8.2847,4.0274 Z" id="形状结合" fill="#84868A"></path>
                </g>
            </g>
        </g>
    </g>
</svg>