<svg xmlns="http://www.w3.org/2000/svg" fill="none" viewBox="0 0 20 20"><path fill="currentColor" d="M0 0h20v20H0z" opacity="0.01"></path><path stroke="currentColor" stroke-linecap="round" stroke-linejoin="round" stroke-width="1.4" d="M7.753 12.256c.114.18.255.339.415.476 1.014.867 2.83.876 3.845.027.17-.143.32-.311.437-.504"></path><path fill="currentColor" d="M7.277 7.559a1.098 1.098 0 1 0 0 2.196 1.098 1.098 0 1 0 0-2.196M13.023 7.559a1.098 1.098 0 1 0 0 2.196 1.098 1.098 0 1 0 0-2.196"></path><path stroke="currentColor" stroke-width="1.4" d="M10 1.5a8.5 8.5 0 1 0 0 17 8.5 8.5 0 1 0 0-17Z"></path></svg>