<svg xmlns="http://www.w3.org/2000/svg" fill="none" viewBox="0 0 16 16"><path fill="currentColor" fill-rule="evenodd" d="M7.987 1.77C6.057-.017 3.17.098 1.369 2.036-.442 3.983-.379 7.159 1.105 9.328c1.507 2.203 3.995 4.385 5.53 5.626.79.639 1.903.627 2.683-.024 1.494-1.247 3.922-3.42 5.54-5.613 1.578-2.136 1.546-5.355-.257-7.289S9.915-.018 7.987 1.771M2.249 2.854c1.355-1.456 3.481-1.535 4.92-.2l.818.757.817-.758c1.438-1.334 3.563-1.258 4.918.196 1.367 1.466 1.44 4.034.17 5.755-1.53 2.071-3.864 4.168-5.345 5.405a.9.9 0 0 1-1.156.012c-1.524-1.233-3.893-3.322-5.294-5.37C.864 6.847.895 4.31 2.249 2.853" clip-rule="evenodd"></path></svg>