<svg xmlns="http://www.w3.org/2000/svg" fill="none" class="icon__JSf8g" viewBox="0 0 14 14"><path fill="#fff" d="M0 0h14v14H0z"></path><path fill="currentColor" fill-rule="evenodd" d="M12.5 7a5.5 5.5 0 1 1-11 0 5.5 5.5 0 0 1 11 0m1 0a6.5 6.5 0 1 1-13 0 6.5 6.5 0 0 1 13 0m-6-4h-1l.172 5.608h.667zm-.033 6.575a.62.62 0 0 0-.472-.182.58.58 0 0 0-.452.182.59.59 0 0 0-.193.451c0 .183.065.334.193.462a.62.62 0 0 0 .452.183.69.69 0 0 0 .472-.183.62.62 0 0 0 .183-.462.62.62 0 0 0-.183-.45" clip-rule="evenodd"></path></svg>